# xmcd
#
# Track frame offsets: 
#        182
#        16387
#        29912
#        43277
#        53862
#        67347
#        79707
#        93522
#        108215
#        119377
#        129835
#        144547
#
# Disc length: 2129 seconds
#
# Revision: 4
# Processed by: cddbd v1.5.2PL0 Copyright (c) Steve Scherf et al.
# Submitted via: ExactAudioCopy v0.99pb3
#
DISCID=ac084f0c
DTITLE=Various Artist - Romantic and Liebe (Trend CD 156.045)
DYEAR=1900
DGENRE=Ballad
TTITLE0=Orig. Romanticas - Auf rote Rosen fallen Tränen
TTITLE1=Lolita - Einmal wirst Du verliebt sein
TTITLE2=Costa Cordalis - Santa Lucia
TTITLE3=S.S.O. Super Sound Orchestra - Red Roses For A Blue Lady
TTITLE4=Andy Marek - A bisserl mehr von Dir
TTITLE5=Horst Chmela - Ich denk' es ist Liebe
TTITLE6=Nina and Mike - Unser Lied
TTITLE7=Edo - Tenderness
TTITLE8=Lena Valaitis - Halt das Glück für uns fest
TTITLE9=Flamingos - Yesterday Dream
TTITLE10=Peter Jung - Der weisse Flieder
TTITLE11=Mel Jersey - Eine zweite Chance
EXTD=
EXTT0=
EXTT1=Banjo - Earl Scruggs
EXTT2=
EXTT3=
EXTT4=
EXTT5=
EXTT6=
EXTT7=
EXTT8=
EXTT9=
EXTT10=
EXTT11=
PLAYORDER=
